<svg xmlns="http://www.w3.org/2000/svg" width="1859.938" height="246.812" viewBox="0 0 1859.938 246.812">
  <defs>
    <style>
      .cls-1 {
        fill: #fefefe;
        fill-rule: evenodd;
      }
    </style>
  </defs>
  <path id="Whiteday" class="cls-1" d="M0.06,48.072L60.422,246.81h69.541l36.358-123.549L205.857,246.81H275.4l60.01-198.738V-0.288h-70.6V44.9L236.215,161.031,203.033,44.9V-0.288h-70.6V44.9L99.605,160.325,70.659,44.9V-0.288H0.06V48.072ZM370.706,246.81h70.6v-94.6h74.129v94.6h70.6V-0.288h-70.6V92.2H441.306V-0.288h-70.6v247.1Zm271.806,0h70.6V-0.288h-70.6v247.1Zm105.9-183.559h60.01V246.81h70.6V63.251h60.01V-0.288H748.407V63.251ZM1147.29,246.81V183.27H1044.92V150.441h74.13V97.492h-74.13V63.251h100.25V-0.288H974.323v247.1H1147.29Zm197.32,0,46.95-46.949V46.66L1344.61-.288H1189.65v247.1h154.96ZM1260.25,63.251h52.95l7.76,7.766V175.5l-7.76,7.766h-52.95V63.251ZM1488.63,246.81V206.568l2.12-8.472h76.95l2.12,8.472V246.81h70.6V198.449L1578.29-.288h-98.13L1418.03,198.8V246.81h70.6Zm40.6-191.325,26.12,86.132h-52.24ZM1787.27,246.81V175.857l72.72-120.725V-0.288h-70.6V44.9l-37.42,68.129L1714.55,44.9V-0.288h-70.6V54.779l72.72,121.078V246.81h70.6Z" transform="translate(-0.063)"/>
</svg>
